Coordinates
version=1
nRows=11
nColumns=40
inDegrees=yes

Units are S.I. units (second, meters, Newtons, ...)
Angles are in degrees.

endheader
time	pelvis_tilt	pelvis_list	pelvis_rotation	pelvis_tx	pelvis_ty	pelvis_tz	hip_flexion_r	hip_adduction_r	hip_rotation_r	knee_angle_r	knee_angle_r_beta	ankle_angle_r	subtalar_angle_r	mtp_angle_r	hip_flexion_l	hip_adduction_l	hip_rotation_l	knee_angle_l	knee_angle_l_beta	ankle_angle_l	subtalar_angle_l	mtp_angle_l	lumbar_extension	lumbar_bending	lumbar_rotation	arm_flex_r	arm_add_r	arm_rot_r	elbow_flex_r	pro_sup_r	wrist_flex_r	wrist_dev_r	arm_flex_l	arm_add_l	arm_rot_l	elbow_flex_l	pro_sup_l	wrist_flex_l	wrist_dev_l
     26.38664286	     -6.55121268	     -7.84028475	      1.25401199	      1.06135073	      0.91307897	      0.49855878	     -2.89818082	      7.08708535	    -17.70091758	      7.33871389	      7.33871389	     18.13165630	     14.05106094	     -0.53996214	     36.27764545	    -11.78136408	     -1.70289146	     21.40350289	     21.40350289	      2.89915328	    -12.08958421	     11.94669072	    -10.25862617	      8.21945091	      6.46482826	     50.90652759	    -14.60672662	      7.42069820	    108.27298701	     43.78783615	      0.00000000	      0.00000000	    -24.07045708	     -8.97232260	      0.75142973	     26.21976691	     45.59000697	      0.00000000	      0.00000000
     26.39828571	     -6.70612835	     -7.69218998	      0.92442326	      1.06279539	      0.91184212	      0.49621805	     -3.03939607	      6.58754137	    -17.36739014	      8.10331526	      8.10331526	     18.66587235	     13.88269188	     -0.64715291	     35.70322639	    -11.46547387	     -1.86720308	     21.80630365	     21.80630365	      2.27762055	    -12.57014252	     11.44016752	     -9.94856882	      8.04184941	      6.08807745	     51.73865690	    -13.95934926	      7.66666872	    110.07974635	     43.75201510	      0.00000000	      0.00000000	    -24.84769737	     -8.67078695	      1.24482939	     25.92245965	     45.50005186	      0.00000000	      0.00000000
     26.40992857	     -6.70109527	     -7.55552387	      0.66654014	      1.06407101	      0.91106277	      0.49370747	     -3.31943222	      6.08915991	    -17.06294268	      8.87927812	      8.87927812	     19.08286034	     13.72147314	     -0.77540878	     35.16125027	    -11.18394644	     -1.92312137	     22.46645872	     22.46645872	      1.86131304	    -12.98883226	     11.04832418	     -9.91329145	      7.87548148	      5.81952537	     52.53711530	    -13.65840926	      7.76359413	    111.57197721	     43.71731434	      0.00000000	      0.00000000	    -25.26795701	     -8.42847427	      1.48552317	     25.74135204	     45.45548504	      0.00000000	      0.00000000
     26.42157143	     -6.84219555	     -7.36165911	      0.39262207	      1.06528234	      0.91044303	      0.49099655	     -3.26936992	      5.44716339	    -16.83001166	      9.97907313	      9.97907313	     19.57953896	     13.56145622	     -0.58486699	     34.69827298	    -10.81879816	     -1.82618747	     22.87743922	     22.87743922	      0.87237737	    -13.85465607	      9.01797691	     -9.75748779	      7.64449827	      6.17838151	     52.49402378	    -14.33418535	      7.80257911	    114.74691623	     43.68678405	      0.00000000	      0.00000000	    -25.20943176	     -8.50401699	      2.62369103	     25.52404633	     45.28845583	      0.00000000	      0.00000000
     26.43321429	     -6.86193754	     -7.18829204	      0.23738960	      1.06638029	      0.91024147	      0.48805799	     -3.34140661	      4.83581917	    -16.62430818	     11.03533005	     11.03533005	     19.83288064	     13.29636263	     -0.79877508	     34.40427543	    -10.49791488	     -1.72712638	     23.74461574	     23.74461574	      0.99099474	    -14.20888326	      8.62385883	     -9.71165469	      7.48531786	      5.69244901	     52.85568423	    -13.88231141	      7.85931244	    116.12257322	     43.65765891	      0.00000000	      0.00000000	    -25.28343562	     -8.22785898	      2.92469391	     25.30400070	     45.24319650	      0.00000000	      0.00000000
     26.44485714	     -6.89006351	     -6.96253193	      0.12787240	      1.06741193	      0.91036194	      0.48488916	     -3.30396518	      4.12109036	    -16.47151813	     12.25388264	     12.25388264	     19.98459680	     13.04555887	     -1.08969157	     34.16482348	    -10.11863145	     -1.64263366	     24.61842217	     24.61842217	      1.31277268	    -14.59375911	      8.27325751	     -9.67028763	      7.27361639	      5.32001102	     52.82336596	    -13.78230139	      7.90930932	    117.68341953	     43.62131448	      0.00000000	      0.00000000	    -25.06490621	     -8.04124869	      3.20485121	     25.12713567	     45.20693431	      0.00000000	      0.00000000
     26.45650000	     -6.84691148	     -6.73548187	      0.07667583	      1.06848501	      0.91091099	      0.48152452	     -3.33804795	      3.39220714	    -16.36625949	     13.46133214	     13.46133214	     19.97810548	     12.83271369	     -1.41250974	     33.86826788	     -9.72962279	     -1.54671168	     25.47141973	     25.47141973	      1.84754833	    -14.92930037	      7.99541613	     -9.68314140	      7.05080874	      4.98334635	     52.49243536	    -13.85985285	      7.91459196	    119.01594184	     43.58903877	      0.00000000	      0.00000000	    -24.60059051	     -7.90470997	      3.42443301	     25.03881861	     45.18379699	      0.00000000	      0.00000000
     26.46814286	     -7.01314469	     -6.43602389	      0.02105201	      1.06928569	      0.91141839	      0.47791062	     -2.81975030	      2.45199115	    -16.37929145	     15.25388695	     15.25388695	     19.88459501	     12.62042309	     -2.20510105	     33.73722043	     -9.24863997	     -1.54319296	     26.17116011	     26.17116011	      2.57000882	    -15.14108392	      8.02975383	     -9.56047615	      6.84952454	      4.94419201	     51.77181148	    -14.32434628	      7.74560891	    121.40998856	     43.53869045	      0.00000000	      0.00000000	    -23.70523129	     -7.88148650	      3.82034558	     24.81680156	     45.14448642	      0.00000000	      0.00000000
     26.47978571	     -7.03909167	     -6.16637496	      0.01509719	      1.07023924	      0.91236952	      0.47415418	     -2.49508436	      1.54740278	    -16.36822427	     16.94146638	     16.94146638	     19.50334445	     12.42310165	     -3.23132561	     33.41221461	     -8.78506577	     -1.58275220	     26.79185481	     26.79185481	      3.48855053	    -15.28552757	      8.28460717	     -9.52874954	      6.66823583	      5.03785786	     50.70735274	    -15.00373159	      7.40072494	    123.34250696	     43.50914834	      0.00000000	      0.00000000	    -22.60563268	     -7.93078592	      4.25725354	     24.65168254	     45.10238148	      0.00000000	      0.00000000
     26.49142857	     -6.96891354	     -5.94385402	      0.02214207	      1.07135390	      0.91368468	      0.47037032	     -2.35457802	      0.72838074	    -16.29234270	     18.37803011	     18.37803011	     18.27071547	     12.09972963	     -6.01296490	     32.94256339	     -8.35501286	     -1.58944163	     27.36933170	     27.36933170	      4.87596048	    -15.27327350	      9.66349592	     -9.59865353	      6.54049294	      5.79022827	     48.93322927	    -16.34008522	      6.28881521	    125.94471985	     43.52403545	      0.00000000	      0.00000000	    -20.93153375	     -8.25043058	      5.54798226	     24.11195642	     44.94689595	      0.00000000	      0.00000000
     26.50307143	     -6.89774040	     -5.71292790	     -0.01673506	      1.07242697	      0.91500513	      0.46662686	     -1.87852198	     -0.19789422	    -16.08552013	     20.50937807	     20.50937807	     17.70254855	     11.64330000	     -6.80771314	     32.32919266	     -7.96771450	     -1.83614977	     27.67574989	     27.67574989	      5.65764070	    -15.28761445	      9.46817878	     -9.58582231	      6.44291061	      5.32098076	     47.73163034	    -16.33553465	      6.44523165	    126.26770927	     43.51265826	      0.00000000	      0.00000000	    -20.10523604	     -8.20993970	      5.73613058	     24.42825282	     44.93373064	      0.00000000	      0.00000000
